<?xml version="1.0" encoding="utf-8"?>
<!-- Generator: Adobe Illustrator 16.0.0, SVG Export Plug-In . SVG Version: 6.00 Build 0)  -->
<!DOCTYPE svg PUBLIC "-//W3C//DTD SVG 1.1//EN" "http://www.w3.org/Graphics/SVG/1.1/DTD/svg11.dtd">
<svg version="1.1" id="Layer_1" xmlns="http://www.w3.org/2000/svg" xmlns:xlink="http://www.w3.org/1999/xlink" x="0px" y="0px"
	 width="367.171px" height="276.517px" viewBox="0 0 367.171 276.517" enable-background="new 0 0 367.171 276.517"
	 xml:space="preserve">
<g>
	<path d="M361.265,153.458c-1.883-1.49-3.771-2.021-4.729-2.207c-3.033-0.582-6.267,0.432-8.412,2.631
		c-0.15,0.154-0.266,0.195-0.256,0.207c-0.04-0.02-0.191-0.148-0.355-0.479c-2.547-5.094-1.771-14.336-0.498-17.672
		c1.465-3.845,0.268-8.126-2.98-10.655c-4.992-3.882-10.998-5.935-17.37-5.935c-9.64,0-19.153,4.871-25.401,12.971
		c-2.1,2.556-3.93,5.447-5.466,8.632c-0.187-0.23-0.378-0.461-0.573-0.684c-3.852-4.402-9.913-7.031-16.215-7.031
		c-3.75,0-7.357,0.925-10.426,2.671c-3.148,1.789-5.694,4.156-7.723,7.191c-1.834-1.201-3.824-2.064-5.947-2.58
		c-1.535-0.371-3.18-0.561-4.885-0.561c-4.318,0-8.494,1.184-11.683,3.285c-0.114,0.07-0.227,0.143-0.339,0.219l-0.093,0.061
		c-0.074,0.047-0.148,0.096-0.296,0.205l-0.01,0.006c-0.277,0.205-0.539,0.424-0.77,0.637l-0.205,0.193
		c-0.213,0.207-0.415,0.424-0.617,0.658c-0.049,0.055-0.096,0.111-0.139,0.164c-0.199,0.242-0.387,0.498-0.551,0.75
		c-4.596-1.408-9.255-1.471-13.295-0.271c-6.574,1.951-12.387,6.584-16.658,13.203c-2.896-3.127-6.931-5.328-11.699-6.324
		c-1.441-0.301-2.906-0.453-4.355-0.453c-9.647,0-18.049,6.652-20.906,16.551c-1.201,4.164-1.773,8.855-1.004,13.111l-0.032-0.002
		c-0.54-1.355-1.223-2.596-2.07-3.695c-3.947-6.061-11.054-7.465-15.919-8.018c-0.41-2.973-1.285-5.674-2.738-8.52
		c-3.959-7.918-12.668-13.445-21.184-13.445c-4.072,0-8.046,1.223-11.49,3.537c-3.096,2.08-5.535,4.723-7.221,7.76
		c-2.938-20.406-19.541-33.407-43.171-33.407c-3.339,0-6.737,0.281-10.104,0.834c-27.259,4.487-47.851,24.448-52.46,50.852
		c-1.879,10.754-1.158,19.994,2.142,27.463c3.405,7.707,9.782,13.992,17.057,16.812c1.509,0.584,6.339,1.721,9.813,1.721
		c3.231,0,5.777-1.002,7.605-2.553c-0.699,5-1.31,10.068-1.703,15.174l-0.062,0.814c-0.627,7.982-1.574,20.047,6.002,28.379
		c4.031,4.424,9.781,6.67,17.094,6.67c0.846,0,1.727-0.031,2.621-0.088c2.904-0.191,5.59-1.76,7.182-4.199
		c1.591-2.438,1.947-5.525,0.952-8.262c-0.286-0.787-0.405-2.414-0.512-3.861l-0.013-0.172c-0.606-8.312,0.186-17.088,0.974-24.66
		c0.595-5.715,1.37-11.457,2.368-17.512c1.659-0.615,3.291-1.311,4.891-2.08c-0.846,9.477,0.989,19.256,5.168,26.938
		c5.969,10.982,16.25,17.807,26.832,17.807c5.341,0,10.385-1.686,14.99-5.004c7.438-5.357,12.08-13.184,15.137-20.037
		c3.812,6.891,10.773,11.211,18.723,11.211c1.627,0,3.281-0.182,4.912-0.541c8.941-1.965,14.021-8.238,18.141-14.793
		c4.268,3.486,9.887,5.334,15.467,4.918c9.826-0.734,16.759-7.682,19.937-15.084c0.112,0.068,0.226,0.133,0.339,0.199
		c4.158,2.414,8.496,3.637,12.893,3.637c6.449,0,12.545-2.619,17.744-7.598c1.566,0.838,3.367,1.273,5.311,1.273
		c4.772,0,12.535-2.99,16.74-4.773c2.451-1.041,5.33-3.254,6.383-7.945c1.59,1.133,3.385,1.98,5.369,2.533
		c1.713,0.477,3.523,0.719,5.387,0.719c6.605,0,14.033-3.201,18.92-8.154c0.566-0.574,1.076-1.105,1.55-1.621
		c2.116,0.787,4.333,1.186,6.61,1.186c5.027,0,9.976-1.971,14.312-5.699c2.467-2.119,4.619-4.902,6.422-8.295
		c5.489,4.045,12.223,5.291,19.008,3.467c0.146-0.039,0.293-0.082,0.429-0.127c5.845-1.873,10.299-6.484,12.22-12.652
		c0.039-0.131,0.078-0.262,0.115-0.404C368.399,165.36,366.195,157.282,361.265,153.458z M42.03,190.739l-0.273,2.256
		c-0.619,5.189-1.428,10.506-2.229,15.699c-0.493-0.742-1.097-1.422-1.8-2.008c-8.105-6.752-5.645-27.537,0.377-35.773
		c0.234-0.322,0.463-0.643,0.695-0.967c0.816-1.148,1.65-2.322,2.909-3.654c0.288,1.252,0.575,2.625,0.754,3.83l0.001,0.391
		l0.107,0.221C43.724,176.899,42.784,184.565,42.03,190.739z"/>
	<path d="M365.518,66.657c-1.105-4.52-4.061-8.137-8.319-10.183c-1.269-0.61-2.624-0.92-4.027-0.92
		c-2.341,0-4.542,0.859-6.239,2.398c0.221-0.736,0.46-1.496,0.703-2.265c0.361-1.144,0.771-2.44,1.13-3.735
		c0.087-0.312,0.187-0.65,0.29-1.007l0.043-0.146c1.401-4.77,4.006-13.63-1.227-20.356c-4.273-6.536-12.051-7.61-16.244-8.188
		c-0.279-0.039-0.562-0.076-0.842-0.111C329.016,11.096,319.604,0,307.164,0c-2.623,0-5.23,0.504-7.748,1.497
		c-7.057,2.786-11.922,8.609-13.348,15.979c-0.975,5.036-0.248,10.282,1.993,14.939c-1.622,0.091-3.29,0.336-4.979,0.731
		c-3.395,0.797-6.512,2.108-9.32,3.915c0.928-11.902-0.805-20.535-5.256-26.288c-3.804-4.917-9.322-7.517-15.959-7.517
		c-1.779,0-3.65,0.19-5.557,0.566c-3.51,0.691-6.346,3.379-7.223,6.849c-0.77,3.052,0.065,6.29,2.184,8.587
		c0.357,1.12,0.844,4.324,0.779,7.224c-0.152,6.791-0.986,13.551-2.023,20.919c-13.23-0.464-24.994,9.225-30.893,24.938
		c-4.86-7.098-13.657-10.356-20.307-10.356c-0.342,0-0.682,0.007-1.02,0.023c2.994-7.008,4.287-14.549,3.753-22.068
		c-1.583-22.252-18.663-36.629-43.515-36.629c-3.344,0-6.744,0.28-10.105,0.834c-27.259,4.486-47.85,24.448-52.459,50.852
		c-1.877,10.755-1.156,19.994,2.142,27.463c3.407,7.706,9.784,13.99,17.06,16.812c1.506,0.584,6.333,1.721,9.811,1.721
		c3.232,0,5.777-1.002,7.605-2.554c-0.697,4.999-1.311,10.067-1.703,15.173l-0.066,0.837c-0.623,7.977-1.564,20.032,6.004,28.352
		c4.031,4.428,9.783,6.676,17.098,6.676c0.845,0,1.725-0.031,2.619-0.09c2.906-0.189,5.591-1.758,7.182-4.197
		c1.592-2.438,1.948-5.527,0.953-8.264c-0.289-0.793-0.408-2.434-0.513-3.881l-0.011-0.15c-0.606-8.307,0.182-17.085,0.971-24.66
		c0.596-5.728,1.372-11.471,2.369-17.51c1.178-0.438,2.341-0.912,3.487-1.426c-1.573,6.957-1.388,14.72,0.595,21.954
		c2.76,10.065,8.697,18.176,16.721,22.834c4.156,2.414,8.494,3.638,12.895,3.638c10.066,0,19.613-6.79,25.109-17.581
		c1.629,1.517,3.425,2.826,5.371,3.912c2.811,1.567,5.824,2.361,8.959,2.361c8.783,0,15.723-6.067,20.352-11.878
		c3.111,2.001,6.598,3.047,10.207,3.047c4.441,0,8.848-1.531,13.098-4.554c2.044-1.451,4.082-3.36,5.875-5.486
		c3.367,1.454,6.83,2.189,10.32,2.189c5.34,0,10.383-1.684,14.992-5.004c7.812-5.631,12.605-14.086,15.725-21.404
		c2.236,3.762,5.376,6.751,9.273,8.796c3.51,1.841,7.426,2.813,11.325,2.813c7.448,0,14.282-3.416,18.753-9.373
		C364.01,81.201,367.223,73.635,365.518,66.657z M117.789,66.815c0.286-7.255,2.428-14.619,5.457-18.761
		c0.256-0.348,0.498-0.69,0.74-1.033c0.783-1.107,1.539-2.176,2.772-3.451c0.343,1.197,0.673,2.526,0.846,3.689l0.001,0.397
		l0.112,0.23c1.182,5.895,0.302,13.067-0.548,20.017l-0.271,2.233c-0.619,5.19-1.43,10.512-2.229,15.699
		c-0.494-0.745-1.098-1.423-1.801-2.009C119.328,80.879,117.477,74.677,117.789,66.815z M129.461,47.308l-1.771,0.399
		c-0.016-0.063-0.029-0.115-0.029-0.115L129.461,47.308z"/>
	<path fill="#FFFFFF" d="M203.584,80.587C203.588,80.597,202.739,77.662,203.584,80.587L203.584,80.587z"/>
	<path fill="#FFFFFF" d="M149.487,83.538c19.358-4.882,34.953-22.198,33.477-42.94c-1.609-22.635-22.885-30.562-42.83-27.277
		c-22.92,3.772-40.777,20.184-44.809,43.271c-1.241,7.117-1.496,15.352,1.487,22.105c2.245,5.077,6.679,9.87,11.911,11.899
		c0.537,0.208,8.191,2.094,8.191,0.378c-12.575-10.478-9.607-36.876-1.174-48.408c8.873-12.136,22.896-21.866,38.73-18.113
		c23.32,5.528,11.203,40.135-2.99,48.167c0.88-5.588,1.345-11.29,0.708-16.877c-0.446-3.939-1.53-8.207-4.443-11.079
		c-3.429-3.379-7.843-3.622-12.278-2.637c1.01,1.805,1.081,2.638,1.32,3.785c1.7,8.165,0.318,17.285-0.653,25.429
		c-1.718,14.386-4.671,28.626-5.784,43.084c-0.526,6.845-1.524,16.644,3.544,22.213c3.075,3.379,7.931,3.846,12.231,3.564
		c-0.748-2.057-0.902-4.377-1.061-6.534c-0.637-8.741,0.092-17.607,0.998-26.301C146.891,99.292,148.061,91.402,149.487,83.538z"/>
	<path fill="#FFFFFF" d="M353.17,64.857c-1.717,2.193-3.834,4.557-7.624,5.771c-4.923,1.438-8.362-0.747-8.872-5.854
		c-0.52-5.181,1.77-10.4,3.129-15.307c1.003-3.616,3.447-10.294,0.486-13.602c-1.842-3.267-6.594-3.936-9.93-4.396
		c-2.027-0.279-4.067-0.447-6.1-0.692c-0.842-0.101-1.686-0.216-2.516-0.388c0.039-1.706,0.102-3.413,0.027-5.119
		c-0.397-9.025-9.219-18.959-18.941-15.122c-9.724,3.84-10.065,16.144-3.119,22.726c3.779,3.579,8.76,4.875,13.822,5.268
		c0.18,0.014,0.365,0.021,0.547,0.03c-1.391,10.347-6.041,30.981-11.73,39.56c-5.322,8.025-19.418,14.438-20.889-5.551
		c23.119,6.169,27.873-35.632,3.746-29.978c-17.989,4.217-20.877,28.679-14.092,43.482c-0.307,1.213-0.703,2.397-1.219,3.519
		c-1.721,3.752-7.78,12.264-12.428,5.291c-3.123-4.683-1.92-11.658-0.996-16.928c0.957-5.465,1.594-9.24,2.986-14.604
		c3.701-14.247,13.904-54.851-10.674-50.013c3.042,2.505,3.297,11.347,3.243,13.741c-0.241,10.78-2.088,21.459-3.555,32.157
		c-28.653-14.005-45.394,44.081-22.083,57.082c10.002,5.58,20.651-9.993,23.445-17.075c0.053-0.131,0.096-0.266,0.148-0.396
		c3.343,8.389,10.325,13.231,19.103,6.992c3.165-2.251,7.032-6.71,8.147-11.064c6.21,5.995,14.941,8.595,22.988,2.798
		c7.764-5.596,12.074-15.327,15.117-24.071c2.998-8.081,5.492-25.182,6.279-34.891c2.9,0.102,5.729,0.526,7.883,2.041
		c3.324,2.339,1.967,6.854,1.173,10.15c0.078,0.555-0.712,2.665-0.897,3.379c-0.816,3.174-1.713,6.317-2.412,9.524
		c-1.664,7.662,0.23,16.693,7.615,20.567c6.336,3.323,13.998,1.853,18.318-3.904C356.321,75.95,359.188,67.749,353.17,64.857z
		 M313.912,30.142c0,0-9.902,0.874-9.902-6.999C304.01,15.271,315.15,17.32,313.912,30.142z M236.004,97.649
		c-0.061,0.04-0.217,0.146-0.211,0.157c-10.863,6.166-9.775-12.344-6.98-20.243c3.066-8.289,9.975-15.111,18.447-12.418
		C246.49,73.264,244.571,90.98,236.004,97.649z M291.871,54.251c-2.393,8.721-11.51,7.361-11.51,7.361
		C279.158,44.621,294.364,44.715,291.871,54.251z"/>
	<path fill="#FFFFFF" d="M205.269,86.48c-1.216-0.857-2.707-1.383-4.188-0.946c-0.492,0.147-3.143,1.531-2.059,2.107
		c2.951,1.569,4.02,5.565,4.314,8.619c0.664,6.911-1.06,15.709-8.532,18.564c-7.62,2.907-11.803-2.216-12.071-8.734
		c-0.255-6.215,1.492-11.996,4.926-17.195c1.799-2.728,4.252-5.102,7.35-6.274c1.863-0.705,3.908-0.948,5.88-0.631
		c0.851,0.138,3.548,0.639,2.696-1.403c-1.965-6.801-11.164-10.712-17.494-8.832c-7.966,2.365-12.604,10.022-14.813,16.057
		c-4.533,12.376-0.874,30.824,11.878,38.228c14.307,8.309,26.492-6.779,28.123-19.909C212.08,99.677,211.082,90.576,205.269,86.48z"
		/>
	<path fill="#FFFFFF" d="M97.821,163.456c-1.609-22.635-22.887-30.565-42.83-27.279c-22.92,3.773-40.777,20.186-44.809,43.273
		c-1.243,7.117-1.496,15.348,1.488,22.104c2.242,5.076,6.677,9.871,11.911,11.9c0.536,0.207,8.19,2.094,8.19,0.379
		c-12.575-10.48-9.609-36.877-1.176-48.412c8.875-12.133,22.898-21.863,38.734-18.109c23.318,5.527,11.201,40.135-2.99,48.164
		c0.879-5.586,1.342-11.287,0.707-16.875c-0.449-3.939-1.531-8.209-4.444-11.078c-3.429-3.379-7.999-3.531-12.435-2.545
		c0.816,0.775,1.237,2.545,1.477,3.693c1.701,8.166,0.316,17.283-0.653,25.428c-1.718,14.385-4.671,28.623-5.784,43.084
		c-0.527,6.844-1.523,16.643,3.544,22.217c3.075,3.377,7.931,3.844,12.229,3.561c-0.747-2.055-0.901-4.377-1.059-6.533
		c-0.639-8.744,0.092-17.609,0.998-26.301c0.83-7.979,1.998-15.865,3.422-23.732C83.701,201.512,99.295,184.198,97.821,163.456z"/>
	<path fill="#FFFFFF" d="M243.857,169.506c-1.216-0.857-2.706-1.383-4.187-0.945c-0.495,0.146-3.145,1.531-2.061,2.107
		c2.949,1.568,4.02,5.566,4.314,8.621c0.664,6.91-1.059,15.707-8.53,18.561c-7.62,2.91-11.804-2.217-12.071-8.734
		c-0.255-6.215,1.49-11.996,4.923-17.191c1.802-2.729,4.253-5.104,7.351-6.277c1.863-0.705,3.908-0.945,5.881-0.629
		c0.849,0.137,3.547,0.637,2.697-1.406c-1.969-6.799-11.164-10.711-17.496-8.83c-7.967,2.367-12.602,10.021-14.812,16.057
		c-4.533,12.373-0.873,30.822,11.879,38.229c14.307,8.307,26.49-6.781,28.121-19.91C250.668,182.704,249.67,173.604,243.857,169.506
		z"/>
	<path fill="#FFFFFF" d="M242.174,163.612C242.178,163.625,241.326,160.688,242.174,163.612L242.174,163.612z"/>
	<path fill="#FFFFFF" d="M197.596,190.094c-4.23-3.041-9.908-6.105-9.139-12.26c0.748-5.979,7.322-7.141,12.23-6.006
		c0.689-5.479-4.057-8.963-8.916-9.979c-6.764-1.414-12.571,3.158-14.422,9.572c-1.174,4.062-0.658,7.752,0.869,11.061
		c-0.714,7.908-2.658,15.482-5.244,22.57c-2.441,5.055-4.566,10.957-9.652,13.922c-3.334,1.947-6.771-1.025-7.107-4.943
		c-0.498-5.809,0.117-8.037,1.66-13.609c1.688-6.096,2.656-13.609-0.166-16.762c-2.738-4.855-12.2-4-17.387-5.082
		c0.123-5.475,0.271-8.266-1.994-12.699c-2.986-5.975-11.785-11.311-19.166-6.348c-7.763,5.215-7.434,15.316-0.873,21.531
		c4.12,3.904,9.102,4.943,14.314,5.301c-1.634,10.764-6.098,29.742-11.492,37.875c-5.322,8.027-19.418,14.439-20.889-5.549
		c23.121,6.166,27.874-35.635,3.746-29.977c-18.737,4.389-21.098,30.756-13.199,45.281c5.571,10.25,17.502,17.416,28.215,9.695
		c7.764-5.592,12.074-15.324,15.117-24.066c2.809-7.572,5.176-23.064,6.111-32.977c0.279,0.012,0.561,0.02,0.84,0.033
		c2.312,0.105,5.034,0.371,7.027,1.775c2.299,1.617,2.657,3.652,1.416,9.164c-2.039,9.057-5.58,16.023-3.217,25.455
		c1.781,7.117,7.857,11.262,14.916,9.711c5.881-1.293,9.383-6.033,12.448-10.953c4.476-7.186,6.306-16.432,7.63-22.258
		c0.656-2.891,1.645-6.721,2.159-9.949c1.283,1.275,2.665,2.465,4.091,3.564c4.752,3.664,11.016,10.717,6.699,15.861
		c-2.146,2.924-5.955,3.643-8.564,1.279c-1.36-1.229-1.978-2.439-2.307,0.422c-0.822,7.127,6.002,12.473,12.754,11.967
		c7.834-0.584,13.478-8.545,13.387-15.658C209.392,199.168,203.709,194.495,197.596,190.094z M110.633,200.758
		c-2.393,8.723-11.511,7.363-11.511,7.363C97.92,191.129,113.125,191.223,110.633,200.758z M132.49,178.334
		c0,0-9.904,0.873-9.904-6.996C122.586,163.463,133.727,165.512,132.49,178.334z"/>
	<path fill="#FFFFFF" d="M355.494,160.752c-0.384-0.305-0.721-0.369-0.721-0.369c-4.625,4.732-12.342,3.861-15.58-2.611
		c-4.094-8.189-2.737-20.252-0.871-25.147c-8.962-6.971-22.1-4.555-29.807,5.516c-7.75,9.363-10.871,24.979-6.963,36.9
		c-0.74,2.9-2.61,5.236-4.961,7.342c-1.553,1.391-4.947,3.338-6.688,1.361c-1.079-1.229-0.997-3.658-1.003-5.201
		c-0.008-2.176,0.402-4.328,0.722-6.471c0.545-3.645,1.007-7.314,1.445-10.973c0.603-5.037,0.718-10.639-2.843-14.707
		c-3.508-4.008-10.422-5.031-15.047-2.398c-7.59,4.314-7.795,13.842-9.913,20.58c-1.103-3.516-2.272-7.867-4.548-10.881
		c-1.5-1.988-3.545-3.541-5.992-4.133c-2.932-0.711-7.075-0.158-9.596,1.656c-0.314,0.229,1.027,0.824,1.215,0.934
		c0.672,0.389,1.316,0.826,1.932,1.301c1.896,1.465,3.512,3.275,4.832,5.27c4.879,7.385,5.604,16.791,4.844,25.381
		c-0.307,3.463-0.867,6.902-1.602,10.301c-0.408,1.881-0.866,3.748-1.371,5.604c-0.27,0.992-0.553,1.982-0.846,2.971
		c-0.135,0.447-0.424,1.016-0.393,1.486c0.168,2.506,13.315-2.92,14.385-3.373c1.158-0.492,1.084-2.277,1.138-3.301
		c0.118-2.248,0.337-4.486,0.552-6.727c0.436-4.496,0.551-8.156,1.176-12.631c0.691-4.943,1.211-10.668,2.24-15.561
		c0.68-3.221,2.232-10.121,6.029-10.395c4.303-0.184,2.209,7.373,1.938,9.648c-0.66,5.531-1.254,9.846-1.824,15.395
		c-0.604,5.846-0.349,15.812,6.639,17.758c5.159,1.438,11.68-1.453,15.188-5.01c2.304-2.334,4.672-5.072,5.884-8.168
		c4.449,5.938,11.134,6.682,17.146,1.512c7.24-6.223,9.458-21.469,9.744-30.82c0.279,3.943,0.332,9.377,2.073,13.777
		c1.803,4.67,7.39,12.941,17.265,10.285c1.391-0.445,4.729-1.908,6.178-6.559C358.532,166.317,357.149,162.034,355.494,160.752z
		 M317.784,170.124c-0.056,0.039-0.202,0.141-0.194,0.152c-10.152,5.984-7.498-16.201-5.525-21.736
		c2.863-8.047,7.889-14.662,15.801-12.047C328.764,144.004,327.002,163.165,317.784,170.124z"/>
	<path fill="#FFFFFF" d="M243.129,151.217C243.178,151.182,243.015,151.299,243.129,151.217L243.129,151.217z"/>
	<path d="M73.936,73.256c-0.098-1.437-1.199-2.655-2.621-2.891c-1.475-0.243-2.896-0.599-4.322-1.119
		c-3.877-1.414-7.358-3.588-10.263-6.52c-4.569-4.611-7.071-10.94-8.604-17.145c-0.951-3.851-1.554-7.749-2.145-11.666
		c-0.129-0.854-0.186-1.851-0.621-2.616c-0.812-1.42-2.637-1.997-4.113-1.287c-1.117,0.535-1.678,1.581-1.811,2.77
		c-0.189,1.709-0.445,3.389-0.73,5.083c-0.648,3.849-1.447,7.707-2.68,11.415c-2.057,6.187-5.133,12.065-10.425,16.084
		c-3.163,2.402-6.723,3.928-10.534,4.97c-1.237,0.299-2.369,0.281-3.155,1.49c-0.956,1.47-1.327,3.303-0.11,4.747
		c0.902,1.074,2.02,1.07,3.268,1.317c1.852,0.44,3.668,0.955,5.422,1.705c3.57,1.527,6.648,3.891,9.19,6.806
		c4.343,4.98,6.282,11.499,7.751,17.803c0.797,3.425,1.166,6.936,1.648,10.411c0.309,2.213,1.693,4.335,4.285,3.753
		c2.928-0.656,2.784-3.881,2.936-6.23c0.232-3.576,1.012-7.172,2.006-10.617c1.996-6.936,4.871-13.735,10.557-18.471
		c2.805-2.334,6.053-3.997,9.514-5.119c0.621-0.2,1.476-0.438,2.105-0.618c0.49-0.141,1.035-0.193,1.469-0.385
		C73.317,76.325,74.031,74.68,73.936,73.256C73.819,71.523,73.969,73.753,73.936,73.256z M51.381,76.595
		c-4.029,3.058-6.633,7.479-8.77,11.951c-2.791-6.048-6.752-11.344-12.662-14.671c6.025-3.321,9.795-8.556,12.676-14.618
		c2.832,6.056,6.723,11.43,12.688,14.716C53.928,74.728,52.596,75.588,51.381,76.595C50.6,77.188,52.635,75.556,51.381,76.595z"/>
	<path fill="#FFFFFF" d="M42.625,59.257c-2.881,6.062-6.65,11.297-12.676,14.618c5.91,3.327,9.871,8.623,12.662,14.671
		c2.137-4.473,4.74-8.894,8.77-11.951c-0.781,0.594,1.254-1.039,0,0c1.215-1.007,2.547-1.867,3.932-2.622
		C49.348,70.687,45.457,65.312,42.625,59.257z"/>
	<path fill="#FFFFFF" d="M51.381,76.595c-4.029,3.058-6.633,7.479-8.77,11.951c-2.791-6.048-6.752-11.344-12.662-14.671
		c6.025-3.321,9.795-8.556,12.676-14.618c2.832,6.056,6.723,11.43,12.688,14.716C53.928,74.728,52.596,75.588,51.381,76.595z"/>
	<path fill="#FFFFFF" d="M51.381,76.595C52.635,75.556,50.6,77.188,51.381,76.595L51.381,76.595z"/>
	<path fill="#FFFFFF" d="M134.989,32.691c0,0,0.148-0.09,0.425-0.257c0.272-0.165,0.675-0.423,1.244-0.715
		c0.562-0.298,1.225-0.649,2.028-0.994c0.797-0.357,1.715-0.733,2.748-1.068c1.033-0.337,2.173-0.681,3.426-0.901
		c1.246-0.237,2.6-0.425,4.032-0.418c1.427-0.002,2.942,0.103,4.463,0.488c0.382,0.074,0.755,0.22,1.134,0.332l0.283,0.091
		l0.143,0.045l0.201,0.074l0.473,0.189c0.281,0.1,0.73,0.32,1.111,0.502c0.391,0.192,0.729,0.398,1.092,0.606
		c1.408,0.88,2.684,2.079,3.619,3.465c0.971,1.372,1.547,2.911,1.893,4.375c0.35,1.468,0.438,2.883,0.404,4.187
		c-0.019,1.305-0.176,2.503-0.383,3.583c-0.395,2.162-0.996,3.853-1.44,5.014c-0.452,1.16-0.765,1.794-0.765,1.794l-2.334-0.708
		c0,0,0.092-0.665,0.253-1.826c0.151-1.154,0.353-2.8,0.429-4.714c0.022-0.959,0.022-1.983-0.066-3.029
		c-0.102-1.042-0.279-2.109-0.576-3.123c-0.318-1.009-0.77-1.956-1.364-2.782c-0.581-0.845-1.384-1.507-2.271-2.105
		c-0.229-0.133-0.471-0.292-0.691-0.403c-0.236-0.111-0.389-0.218-0.746-0.357l-0.47-0.198l-0.339-0.115
		c-0.27-0.081-0.523-0.198-0.805-0.253c-1.08-0.322-2.221-0.498-3.352-0.559c-1.131-0.056-2.258-0.067-3.338,0.042
		c-1.076,0.094-2.11,0.227-3.064,0.398c-0.951,0.182-1.834,0.352-2.611,0.547c-0.773,0.188-1.467,0.361-2.012,0.517
		c-0.542,0.151-1.002,0.271-1.314,0.369c-0.309,0.091-0.475,0.139-0.475,0.139L134.989,32.691z"/>
	<path fill="#FFFFFF" d="M190.864,111.674c0,0,0.252-0.316,0.713-0.839c0.266-0.252,0.441-0.589,0.682-0.931
		c0.119-0.176,0.249-0.339,0.375-0.547c0.123-0.218,0.244-0.451,0.387-0.678c0.299-0.44,0.527-0.992,0.799-1.54
		c0.285-0.54,0.5-1.165,0.75-1.778c0.193-0.644,0.479-1.272,0.619-1.962c0.189-0.673,0.333-1.362,0.457-2.054
		c0.129-0.688,0.201-1.385,0.258-2.057c0.014-0.339,0.028-0.673,0.059-1.005c0.013-0.328-0.024-0.645-0.018-0.963
		c0.033-0.65-0.119-1.215-0.131-1.807c-0.139-0.527-0.182-1.1-0.364-1.543c-0.144-0.47-0.284-0.917-0.483-1.268
		c-0.18-0.364-0.318-0.726-0.51-0.957c-0.348-0.498-0.545-0.847-0.545-0.847l0.77-1.112c0,0,0.398,0.158,1.094,0.545
		c0.377,0.166,0.719,0.494,1.137,0.869c0.461,0.352,0.81,0.867,1.215,1.437c0.098,0.142,0.211,0.285,0.303,0.439
		c0.076,0.16,0.152,0.323,0.23,0.489c0.154,0.339,0.314,0.688,0.478,1.048c0.122,0.367,0.218,0.752,0.327,1.146
		c0.125,0.396,0.186,0.803,0.23,1.216c0.049,0.413,0.109,0.84,0.123,1.264c0.004,0.423-0.007,0.853-0.019,1.284
		c0.009,0.437-0.073,0.857-0.128,1.287c-0.066,0.428-0.099,0.865-0.213,1.28l-0.311,1.252c-0.107,0.415-0.279,0.809-0.418,1.205
		c-0.266,0.802-0.656,1.539-0.994,2.26c-0.422,0.688-0.795,1.362-1.24,1.95c-0.457,0.582-0.876,1.127-1.351,1.575
		c-0.222,0.233-0.449,0.441-0.658,0.643c-0.224,0.197-0.472,0.376-0.683,0.543c-0.434,0.33-0.82,0.611-1.123,0.746
		c-0.622,0.313-0.99,0.478-0.99,0.478L190.864,111.674z"/>
	<path fill="#FFFFFF" d="M49.813,155.561c0,0,0.147-0.09,0.424-0.256c0.273-0.166,0.676-0.424,1.244-0.715
		c0.562-0.299,1.225-0.65,2.029-0.994c0.796-0.357,1.714-0.734,2.746-1.068c1.033-0.34,2.174-0.682,3.426-0.902
		c1.248-0.236,2.602-0.426,4.033-0.418c1.428-0.002,2.943,0.102,4.463,0.488c0.383,0.074,0.756,0.221,1.135,0.332l0.283,0.09
		l0.143,0.045l0.199,0.074l0.475,0.191c0.281,0.1,0.73,0.318,1.111,0.502c0.391,0.191,0.727,0.398,1.09,0.605
		c1.408,0.879,2.686,2.078,3.621,3.465c0.969,1.373,1.547,2.912,1.893,4.375c0.349,1.469,0.438,2.883,0.404,4.186
		c-0.02,1.307-0.176,2.504-0.383,3.584c-0.396,2.162-0.998,3.852-1.441,5.014c-0.451,1.16-0.766,1.793-0.766,1.793l-2.332-0.707
		c0,0,0.092-0.664,0.252-1.826c0.152-1.154,0.354-2.799,0.428-4.715c0.023-0.957,0.023-1.982-0.064-3.027
		c-0.103-1.045-0.279-2.109-0.578-3.123c-0.316-1.012-0.768-1.957-1.363-2.785c-0.58-0.844-1.383-1.504-2.27-2.104
		c-0.229-0.133-0.473-0.291-0.691-0.402c-0.236-0.111-0.389-0.219-0.746-0.357l-0.471-0.199l-0.338-0.115
		c-0.27-0.08-0.523-0.197-0.805-0.254c-1.08-0.322-2.221-0.496-3.354-0.559c-1.129-0.055-2.258-0.066-3.336,0.043
		c-1.076,0.094-2.111,0.227-3.064,0.398c-0.951,0.182-1.834,0.35-2.611,0.547c-0.773,0.189-1.469,0.361-2.014,0.518
		c-0.541,0.15-1.002,0.27-1.312,0.369c-0.311,0.088-0.477,0.139-0.477,0.139L49.813,155.561z"/>
	<path fill="#FFFFFF" d="M229.373,194.811c0,0,0.252-0.316,0.712-0.84c0.267-0.25,0.442-0.588,0.683-0.932
		c0.119-0.176,0.248-0.338,0.375-0.545c0.123-0.219,0.244-0.453,0.387-0.68c0.299-0.439,0.527-0.99,0.799-1.539
		c0.285-0.539,0.499-1.166,0.75-1.777c0.193-0.645,0.477-1.273,0.619-1.963c0.189-0.674,0.333-1.361,0.457-2.053
		c0.128-0.688,0.201-1.387,0.258-2.059c0.014-0.336,0.027-0.672,0.058-1.004c0.014-0.328-0.024-0.645-0.017-0.963
		c0.034-0.648-0.119-1.215-0.131-1.805c-0.14-0.529-0.182-1.102-0.363-1.545c-0.145-0.469-0.285-0.916-0.482-1.266
		c-0.184-0.367-0.318-0.729-0.512-0.959c-0.348-0.498-0.546-0.846-0.546-0.848l0.771-1.109c0-0.002,0.398,0.156,1.094,0.545
		c0.379,0.164,0.719,0.492,1.137,0.867c0.461,0.352,0.809,0.867,1.215,1.436c0.098,0.143,0.211,0.285,0.302,0.441
		c0.075,0.158,0.153,0.322,0.231,0.49c0.152,0.338,0.313,0.686,0.477,1.047c0.121,0.365,0.219,0.752,0.328,1.146
		c0.123,0.395,0.185,0.801,0.229,1.215c0.05,0.414,0.109,0.84,0.124,1.264c0.004,0.422-0.007,0.852-0.019,1.285
		c0.01,0.436-0.074,0.857-0.129,1.287c-0.066,0.426-0.098,0.865-0.212,1.279l-0.31,1.252c-0.109,0.414-0.279,0.809-0.418,1.207
		c-0.266,0.799-0.656,1.537-0.994,2.258c-0.423,0.688-0.797,1.361-1.24,1.949c-0.457,0.584-0.877,1.129-1.352,1.576
		c-0.221,0.232-0.448,0.441-0.658,0.643c-0.223,0.199-0.471,0.375-0.682,0.543c-0.436,0.332-0.82,0.611-1.124,0.746
		c-0.622,0.314-0.989,0.479-0.989,0.479L229.373,194.811z"/>
	<path fill="#FFFFFF" d="M242.346,72.164c0,0,0.009,0.411,0,1.124c-0.02,0.709-0.082,1.791-0.246,3.012
		c-0.146,1.237-0.41,2.665-0.768,4.181c-0.205,0.752-0.373,1.54-0.633,2.318c-0.242,0.785-0.513,1.576-0.801,2.362
		c-0.283,0.787-0.646,1.554-0.971,2.315c-0.361,0.756-0.723,1.486-1.139,2.18c-0.381,0.703-0.828,1.353-1.266,1.958
		c-0.419,0.614-0.916,1.153-1.348,1.647c-0.496,0.473-0.9,0.917-1.367,1.245c-0.465,0.33-0.82,0.638-1.209,0.814
		c-0.368,0.193-0.666,0.32-0.86,0.414c-0.05,0.022-0.093,0.043-0.13,0.059l-0.027,0.013l-0.002,0.001
		c-0.069,0.043,0.094-0.057,0.076-0.046l-0.004,0.002l-0.006,0.001l-0.01,0.007l-0.037,0.016c-0.045,0.021-0.067,0.033-0.067,0.033
		l-1.166-1.74c0,0,0.02-0.017,0.056-0.05l0.029-0.029l0.01-0.007l0.004-0.005l0.002-0.002l0.08-0.048v-0.001l0.016-0.018
		c0.023-0.022,0.049-0.049,0.076-0.079c0.119-0.118,0.283-0.3,0.502-0.498c0.225-0.181,0.436-0.537,0.719-0.843
		c0.279-0.314,0.527-0.778,0.85-1.196c0.271-0.489,0.594-0.979,0.893-1.552c0.297-0.57,0.605-1.171,0.904-1.821
		c0.323-0.628,0.57-1.337,0.895-2.014c0.281-0.705,0.578-1.414,0.844-2.145c0.575-1.438,1.057-2.926,1.549-4.311
		c0.458-1.403,0.889-2.711,1.256-3.834c0.363-1.129,0.666-2.068,0.877-2.726c0.213-0.681,0.35-1.067,0.35-1.067L242.346,72.164z"/>
	<path fill="#FFFFFF" d="M323.774,144.043c0,0,0.041,0.379,0.088,1.037c0.041,0.646,0.073,1.652,0.014,2.793
		c-0.021,0.578-0.061,1.203-0.137,1.861c-0.066,0.658-0.154,1.355-0.274,2.07c-0.146,0.711-0.258,1.453-0.453,2.195
		c-0.179,0.744-0.403,1.492-0.633,2.242c-0.243,0.744-0.509,1.484-0.819,2.197c-0.297,0.719-0.643,1.406-1.006,2.061
		c-0.332,0.666-0.756,1.271-1.133,1.844c-0.424,0.555-0.783,1.094-1.221,1.533c-0.408,0.453-0.785,0.859-1.18,1.174
		c-0.377,0.326-0.693,0.611-1.006,0.803c-0.598,0.4-0.943,0.604-0.943,0.604l-1.243-1.512c0,0,0.205-0.301,0.571-0.775
		c0.195-0.227,0.379-0.559,0.617-0.898c0.243-0.336,0.471-0.758,0.738-1.197c0.273-0.428,0.496-0.959,0.791-1.461
		c0.237-0.553,0.533-1.098,0.781-1.705c0.266-0.594,0.504-1.227,0.75-1.873c0.25-0.641,0.473-1.312,0.709-1.979
		c0.457-1.34,0.838-2.717,1.209-4.01c0.148-0.658,0.357-1.279,0.496-1.887c0.151-0.604,0.295-1.178,0.428-1.705
		c0.266-1.064,0.486-1.951,0.641-2.572c0.157-0.641,0.262-1.006,0.262-1.006L323.774,144.043z"/>
</g>
</svg>
